<?xml version="1.0" encoding="UTF-8" standalone="no"?>
<!-- Created with Inkscape (http://www.inkscape.org/) -->

<svg
   width="319.99997"
   height="324.11734"
   viewBox="0 0 319.99997 324.11734"
   version="1.1"
   id="svg1"
   xml:space="preserve"
   inkscape:version="1.3.2 (091e20e, 2023-11-25, custom)"
   sodipodi:docname="drawing.svg"
   xmlns:inkscape="http://www.inkscape.org/namespaces/inkscape"
   xmlns:sodipodi="http://sodipodi.sourceforge.net/DTD/sodipodi-0.dtd"
   xmlns="http://www.w3.org/2000/svg"
   xmlns:svg="http://www.w3.org/2000/svg"><sodipodi:namedview
     id="namedview1"
     pagecolor="#505050"
     bordercolor="#eeeeee"
     borderopacity="1"
     inkscape:showpageshadow="0"
     inkscape:pageopacity="0"
     inkscape:pagecheckerboard="0"
     inkscape:deskcolor="#505050"
     inkscape:document-units="px"
     inkscape:zoom="0.35355339"
     inkscape:cx="-673.16565"
     inkscape:cy="156.9777"
     inkscape:window-width="1920"
     inkscape:window-height="1051"
     inkscape:window-x="-9"
     inkscape:window-y="-9"
     inkscape:window-maximized="1"
     inkscape:current-layer="layer1" /><defs
     id="defs1" /><g
     inkscape:label="Layer 1"
     inkscape:groupmode="layer"
     id="layer1"
     transform="translate(-735.86352,-360.09699)"><path
       style="fill:#1a1a1a"
       d="m 975.6176,583.383 -0.2541,-100.73886 -6.39132,11.23886 c -12.03577,21.16443 -72.39032,121.73887 -73.05528,121.73887 -0.36529,0 -18.37458,-29.5875 -40.02065,-65.75 -21.64606,-36.1625 -39.77156,-66.2 -40.27888,-66.75 -0.57791,-0.62652 -0.85137,0.12043 -0.73218,2 0.10462,1.65 0.14255,46.9875 0.0843,100.75 l -0.10597,97.75 h -14.5 -14.5 V 561.01954 438.41722 l -7.8783,-13.14768 c -4.33307,-7.23122 -8.75551,-14.88422 -9.82764,-17.00667 -1.93973,-3.83999 -1.94736,-3.1715 -1.54953,135.75 l 0.39981,139.609 h -15.57217 -15.57217 v -161.5 -161.5 l 31.5,-0.2 c 17.325,-0.11 33.13476,-0.2225 35.1328,-0.25 4.07099,-0.056 1.47542,-3.84618 34.72042,50.7 6.95573,11.4125 18.20576,29.8625 25.00008,41 6.79431,11.1375 17.18474,28.24308 23.08985,38.0124 l 10.73655,17.76241 25.74465,-42.76241 c 14.15956,-23.51932 34.10964,-56.64405 44.33352,-73.61052 l 18.58891,-30.84811 34.3266,0.002 c 18.8796,10e-4 34.8891,0.0452 35.5766,0.0981 0.9945,0.0766 1.25,33.17353 1.25,161.89244 v 161.79616 l -12.75,-0.25227 c -7.0125,-0.13874 -13.9875,-0.27202 -15.5,-0.29616 l -2.75,-0.0439 V 544.39936 c 0,-117.7031 -0.2102,-138.91762 -1.3604,-137.25 -0.7482,1.08488 -4.9107,8.04751 -9.25,15.47251 l -7.8896,13.5 -0.2616,123.75 -0.2615,123.75 -8.7385,0.0538 c -4.8061,0.0296 -11.549,0.14206 -14.9843,0.25 l -6.2458,0.19624 z"
       id="path7" /></g></svg>
